<?xml version="1.0" encoding="UTF-8" standalone="no"?>
<svg
   xmlns:dc="http://purl.org/dc/elements/1.1/"
   xmlns:cc="http://creativecommons.org/ns#"
   xmlns:rdf="http://www.w3.org/1999/02/22-rdf-syntax-ns#"
   xmlns:svg="http://www.w3.org/2000/svg"
   xmlns="http://www.w3.org/2000/svg"
   xmlns:sodipodi="http://sodipodi.sourceforge.net/DTD/sodipodi-0.dtd"
   xmlns:inkscape="http://www.inkscape.org/namespaces/inkscape"
   width="250"
   height="250"
   viewBox="0 0 66.145832 66.145835"
   version="1.1"
   id="svg8"
   sodipodi:docname="cyoa_spy_icon.svg"
   inkscape:version="1.0.1 (3bc2e813f5, 2020-09-07)">
  <defs
     id="defs2" />
  <sodipodi:namedview
     id="base"
     pagecolor="#ffffff"
     bordercolor="#666666"
     borderopacity="1.0"
     inkscape:pageopacity="0.0"
     inkscape:pageshadow="2"
     inkscape:zoom="1.4142136"
     inkscape:cx="33.00891"
     inkscape:cy="129.94991"
     inkscape:document-units="mm"
     inkscape:current-layer="layer1"
     showgrid="false"
     units="px"
     inkscape:window-width="1366"
     inkscape:window-height="705"
     inkscape:window-x="-8"
     inkscape:window-y="-8"
     inkscape:window-maximized="1"
     inkscape:document-rotation="0" />
  <metadata
     id="metadata5">
    <rdf:RDF>
      <cc:Work
         rdf:about="">
        <dc:format>image/svg+xml</dc:format>
        <dc:type
           rdf:resource="http://purl.org/dc/dcmitype/StillImage" />
        <dc:title />
      </cc:Work>
    </rdf:RDF>
  </metadata>
  <g
     inkscape:label="Camada 1"
     inkscape:groupmode="layer"
     id="layer1"
     transform="translate(0,-230.85414)">
    <path
       style="opacity:1;vector-effect:none;fill:#ffffff;fill-opacity:1;stroke-width:0.505076;stroke-linecap:butt;stroke-linejoin:miter;stroke-miterlimit:4;stroke-dasharray:none;stroke-dashoffset:0;stroke-opacity:1"
       d="m 41.90275,283.48602 c -2.746186,-4.61559 -7.091679,-10.50977 -10.716858,-13.38827 -1.008381,0.45632 -2.135156,1.0398 -3.115422,1.46336 -0.391223,-0.91301 -0.902426,-2.04534 -1.136296,-2.74102 0.930682,-0.38169 2.000023,-1.02057 2.33796,-1.34551 -8.7318,-8.42069 -14.513185,-15.89972 -14.513185,-27.953 5.270618,5.36713 10.946201,13.27149 16.419891,16.43173 0.82365,3.08757 1.872741,5.38509 3.856146,7.67477 0,0 1.504034,-0.82686 2.041244,-1.08797 0.392882,0 2.75305,2.61174 2.75305,3.0465 -0.702394,0.49322 -1.626742,0.95164 -2.00709,1.16996 5.167007,5.71627 9.11918,11.3662 13.564694,17.99385 -2.669869,1.21237 -4.88295,3.6362 -8.313851,3.5812 -0.215946,-1.82002 -0.335391,-3.40065 -1.170283,-4.8456 z"
       id="path21"
       inkscape:connector-curvature="0"
       sodipodi:nodetypes="cccccccccccccc" />
  </g>
</svg>
