<?xml version="1.0" encoding="UTF-8" standalone="no"?>
<svg
   xmlns:dc="http://purl.org/dc/elements/1.1/"
   xmlns:cc="http://creativecommons.org/ns#"
   xmlns:rdf="http://www.w3.org/1999/02/22-rdf-syntax-ns#"
   xmlns:svg="http://www.w3.org/2000/svg"
   xmlns="http://www.w3.org/2000/svg"
   xmlns:sodipodi="http://sodipodi.sourceforge.net/DTD/sodipodi-0.dtd"
   xmlns:inkscape="http://www.inkscape.org/namespaces/inkscape"
   width="250"
   height="250"
   viewBox="0 0 66.145832 66.145835"
   version="1.1"
   id="svg8"
   inkscape:version="1.0.1 (3bc2e813f5, 2020-09-07)"
   sodipodi:docname="cyoa_scout_icon.svg">
  <defs
     id="defs2">
    <inkscape:path-effect
       effect="powerstroke"
       id="path-effect62"
       is_visible="true"
       offset_points="0,0.13229166"
       sort_points="true"
       interpolator_type="CubicBezierJohan"
       interpolator_beta="0.2"
       start_linecap_type="zerowidth"
       linejoin_type="extrp_arc"
       miter_limit="4"
       end_linecap_type="zerowidth" />
    <inkscape:path-effect
       effect="spiro"
       id="path-effect60"
       is_visible="true" />
  </defs>
  <sodipodi:namedview
     id="base"
     pagecolor="#ffffff"
     bordercolor="#666666"
     borderopacity="1.0"
     inkscape:pageopacity="0.0"
     inkscape:pageshadow="2"
     inkscape:zoom="1.4142136"
     inkscape:cx="185.05326"
     inkscape:cy="178.29178"
     inkscape:document-units="mm"
     inkscape:current-layer="layer1"
     showgrid="false"
     units="px"
     inkscape:window-width="1366"
     inkscape:window-height="705"
     inkscape:window-x="-8"
     inkscape:window-y="-8"
     inkscape:window-maximized="1"
     inkscape:document-rotation="0" />
  <metadata
     id="metadata5">
    <rdf:RDF>
      <cc:Work
         rdf:about="">
        <dc:format>image/svg+xml</dc:format>
        <dc:type
           rdf:resource="http://purl.org/dc/dcmitype/StillImage" />
        <dc:title />
      </cc:Work>
    </rdf:RDF>
  </metadata>
  <g
     inkscape:label="Camada 1"
     inkscape:groupmode="layer"
     id="layer1"
     transform="translate(0,-230.85414)">
    <path
       style="opacity:1;vector-effect:none;fill:#ffffff;fill-opacity:1;stroke-width:0.602924;stroke-linecap:butt;stroke-linejoin:miter;stroke-miterlimit:4;stroke-dasharray:none;stroke-dashoffset:0;stroke-opacity:1"
       d="m 13.55416,291.79145 c -0.653055,-0.23472 -0.775815,-0.64122 -0.408282,-1.35196 1.102128,-1.31269 3.037744,-1.8447 4.413727,-2.47776 1.645054,-0.76007 2.72865,-2.22595 3.488407,-4.71911 0.604308,-1.59154 0.922007,-2.95373 1.630655,-4.36389 3.176231,0.94089 6.607137,2.04331 9.383087,3.13883 -1.094891,1.62222 -3.342277,4.40118 -4.926988,5.58108 -1.545828,1.28869 -3.456824,2.15408 -5.125855,2.85766 -2.407223,0.8121 -5.154373,1.50482 -7.338086,1.54512 -0.307082,-0.005 -0.809582,-0.0996 -1.116665,-0.20997 z"
       id="path40"
       inkscape:connector-curvature="0"
       sodipodi:nodetypes="cccccccccc" />
    <path
       style="opacity:1;vector-effect:none;fill:#ffffff;fill-opacity:1;stroke-width:0.602924;stroke-linecap:butt;stroke-linejoin:miter;stroke-miterlimit:4;stroke-dasharray:none;stroke-dashoffset:0;stroke-opacity:1"
       d="m 33.674076,280.03467 c -3.517731,-1.05402 -6.85147,-2.12832 -10.176819,-3.22498 0.55186,-1.01707 1.504433,-3.1928 2.036263,-4.71276 0.43272,-1.40464 0.721511,-2.97273 1.911004,-4.60965 4.845546,-0.49687 6.561278,-0.76332 9.045873,-1.09434 3.888242,-0.56931 7.350379,-0.99712 8.511718,-1.24941 1.338221,1.15432 1.649276,2.91331 1.858741,4.42187 -4.716983,2.76867 -10.696994,6.0577 -13.18678,10.46927 z"
       id="path42"
       inkscape:connector-curvature="0"
       sodipodi:nodetypes="cccccccc" />
    <path
       style="opacity:1;vector-effect:none;fill:#ffffff;fill-opacity:1;stroke-width:0.602924;stroke-linecap:butt;stroke-linejoin:miter;stroke-miterlimit:4;stroke-dasharray:none;stroke-dashoffset:0;stroke-opacity:1"
       d="m 27.50844,249.56365 c 4.304215,-3.23978 9.943215,-5.4551 13.882588,-7.22486 4.85247,-1.76061 7.809746,-4.01142 11.804748,-6.4861 0.09844,1.9807 -0.650324,3.85143 -1.399085,5.6947 -8.537433,3.67653 -13.076931,5.69785 -20.236569,8.74607 -0.139257,0.63222 -0.329744,2.44101 -0.355617,3.38541 -0.188762,1.2504 -0.257265,8.17147 0.133831,8.54971 0.339238,-1.72374 0.297517,-3.01727 0.186687,-4.51373 6.226008,-1.57796 10.20155,-2.76669 15.908305,-4.37965 0,0 -0.528863,0.67003 -1.874369,2.03434 -2.318226,2.26877 -5.229314,2.9734 -7.935043,4.40311 2.226631,1.30244 4.740305,1.58561 6.461884,3.2876 -5.451146,0.9099 -9.919959,1.47929 -15.676832,2.04383 0.940592,-5.06485 -0.303896,-10.90354 -0.900528,-15.54043 z"
       id="path44"
       inkscape:connector-curvature="0"
       sodipodi:nodetypes="cccccccccccccc" />
    <path
       style="fill:#ffffff;stroke:none;stroke-width:0.315841px;stroke-linecap:butt;stroke-linejoin:miter;stroke-opacity:1"
       d="m 31.544994,257.06612 v -2.26124 l 19.402057,-8.5425 c -0.894879,2.23862 -2.01892,4.35595 -3.154578,6.47666 z"
       id="path68"
       inkscape:connector-curvature="0"
       sodipodi:nodetypes="ccccc" />
    <path
       style="fill:#ffffff;stroke:none;stroke-width:0.315841px;stroke-linecap:butt;stroke-linejoin:miter;stroke-opacity:1"
       d="m 51.482101,242.431 -0.390834,3.15839 -19.532318,8.64319 0.418751,-3.60125 z"
       id="path70"
       inkscape:connector-curvature="0"
       sodipodi:nodetypes="ccccc" />
  </g>
</svg>
