<?xml version="1.0" encoding="UTF-8" standalone="no"?>
<svg
   xmlns:dc="http://purl.org/dc/elements/1.1/"
   xmlns:cc="http://creativecommons.org/ns#"
   xmlns:rdf="http://www.w3.org/1999/02/22-rdf-syntax-ns#"
   xmlns:svg="http://www.w3.org/2000/svg"
   xmlns="http://www.w3.org/2000/svg"
   xmlns:sodipodi="http://sodipodi.sourceforge.net/DTD/sodipodi-0.dtd"
   xmlns:inkscape="http://www.inkscape.org/namespaces/inkscape"
   width="250"
   height="250"
   viewBox="0 0 66.145832 66.145835"
   version="1.1"
   id="svg8"
   sodipodi:docname="cyoa_pyro_icon.svg"
   inkscape:version="1.0.1 (3bc2e813f5, 2020-09-07)">
  <defs
     id="defs2" />
  <sodipodi:namedview
     id="base"
     pagecolor="#ffffff"
     bordercolor="#666666"
     borderopacity="1.0"
     inkscape:pageopacity="0.0"
     inkscape:pageshadow="2"
     inkscape:zoom="1.4142136"
     inkscape:cx="23.605438"
     inkscape:cy="128.83633"
     inkscape:document-units="mm"
     inkscape:current-layer="layer1"
     showgrid="false"
     units="px"
     inkscape:window-width="1366"
     inkscape:window-height="705"
     inkscape:window-x="-8"
     inkscape:window-y="-8"
     inkscape:window-maximized="1"
     inkscape:document-rotation="0" />
  <metadata
     id="metadata5">
    <rdf:RDF>
      <cc:Work
         rdf:about="">
        <dc:format>image/svg+xml</dc:format>
        <dc:type
           rdf:resource="http://purl.org/dc/dcmitype/StillImage" />
        <dc:title />
      </cc:Work>
    </rdf:RDF>
  </metadata>
  <g
     inkscape:label="Camada 1"
     inkscape:groupmode="layer"
     id="layer1"
     transform="translate(0,-230.85414)">
    <path
       id="path34"
       style="opacity:1;vector-effect:none;fill:#ffffff;fill-opacity:1;stroke:none;stroke-width:0.457667;stroke-linecap:butt;stroke-linejoin:miter;stroke-miterlimit:4;stroke-dasharray:none;stroke-dashoffset:0;stroke-opacity:1"
       d="m 23.972686,235.92211 c 3.7441,3.50984 4.54979,7.72478 3.687063,12.19531 -1.35051,4.93025 -2.653527,7.04159 -5.241211,13.2428 -0.430291,1.2365 -0.7572,2.54064 -1.468551,2.95742 -2.136228,-0.99423 -1.292556,-3.57228 -3.08994,-5.37394 -1.118156,-0.94755 -2.322916,-1.70057 -3.730142,-1.9542 3.286724,4.27282 2.369724,8.06961 2.032707,11.92653 -1.103992,21.40298 21.696881,30.91056 31.409814,15.24508 3.157157,-5.60929 5.264537,-12.41107 4.135186,-18.22975 -0.651081,-2.9191 -1.958991,-5.5357 -1.645928,-8.44737 0.08289,-0.66552 0.09407,-1.10631 0.02716,-1.08402 -1.744858,2.70996 -1.767604,6.28759 -2.513608,9.19846 -0.593541,1.93699 -1.941532,3.70782 -3.726397,4.66198 -5.71679,2.21244 -3.912183,-7.26034 -3.998923,-8.68853 0.937219,-14.22542 -6.495176,-23.44279 -15.87723,-25.64977 z"
       inkscape:connector-curvature="0"
       sodipodi:nodetypes="ccccccccccccccc" />
  </g>
</svg>
