<?xml version="1.0" encoding="UTF-8" standalone="no"?>
<svg
   xmlns:dc="http://purl.org/dc/elements/1.1/"
   xmlns:cc="http://creativecommons.org/ns#"
   xmlns:rdf="http://www.w3.org/1999/02/22-rdf-syntax-ns#"
   xmlns:svg="http://www.w3.org/2000/svg"
   xmlns="http://www.w3.org/2000/svg"
   xmlns:sodipodi="http://sodipodi.sourceforge.net/DTD/sodipodi-0.dtd"
   xmlns:inkscape="http://www.inkscape.org/namespaces/inkscape"
   width="250"
   height="250"
   viewBox="0 0 66.145832 66.145835"
   version="1.1"
   id="svg8"
   sodipodi:docname="cyoa_demo_icon.svg"
   inkscape:version="1.0.1 (3bc2e813f5, 2020-09-07)">
  <defs
     id="defs2" />
  <sodipodi:namedview
     id="base"
     pagecolor="#ffffff"
     bordercolor="#666666"
     borderopacity="1.0"
     inkscape:pageopacity="0.0"
     inkscape:pageshadow="2"
     inkscape:zoom="0.70710678"
     inkscape:cx="477.51979"
     inkscape:cy="149.93678"
     inkscape:document-units="mm"
     inkscape:current-layer="layer1"
     showgrid="false"
     units="px"
     inkscape:window-width="1366"
     inkscape:window-height="705"
     inkscape:window-x="-8"
     inkscape:window-y="-8"
     inkscape:window-maximized="1"
     inkscape:document-rotation="0"
     inkscape:lockguides="true" />
  <metadata
     id="metadata5">
    <rdf:RDF>
      <cc:Work
         rdf:about="">
        <dc:format>image/svg+xml</dc:format>
        <dc:type
           rdf:resource="http://purl.org/dc/dcmitype/StillImage" />
        <dc:title />
      </cc:Work>
    </rdf:RDF>
  </metadata>
  <g
     inkscape:label="Camada 1"
     inkscape:groupmode="layer"
     id="layer1"
     transform="translate(0,-230.85414)">
    <path
       style="opacity:1;vector-effect:none;fill:#ffffff;fill-opacity:1;stroke-width:0.41036;stroke-linecap:butt;stroke-linejoin:miter;stroke-miterlimit:4;stroke-dasharray:none;stroke-dashoffset:0;stroke-opacity:1"
       d="m 18.360547,279.82597 c 0,-1.37237 3.534086,-1.0589 6.255052,0.47508 2.54572,1.43519 4.704652,3.75684 3.816004,4.46636 -2.814772,2.42347 -6.660464,4.47658 -9.565819,6.72825 -0.144874,-4.39796 -0.463656,-8.27306 -0.505237,-11.66969 z"
       id="path390"
       inkscape:connector-curvature="0"
       sodipodi:nodetypes="csccc" />
    <path
       style="opacity:1;vector-effect:none;fill:#ffffff;fill-opacity:1;stroke-width:0.41036;stroke-linecap:butt;stroke-linejoin:miter;stroke-miterlimit:4;stroke-dasharray:none;stroke-dashoffset:0;stroke-opacity:1"
       d="m 49.002992,271.11752 c 0.71965,-1.66526 1.588237,-2.6092 2.898289,-3.11873 2.522151,-1.07488 7.157943,5.99462 8.515309,8.29631 -3.576273,0.23194 -6.967405,0.45429 -10.538363,0.53945 -1.977292,-0.32259 -1.536701,-4.1864 -0.875235,-5.71703 z"
       id="path400"
       inkscape:connector-curvature="0"
       sodipodi:nodetypes="scccs" />
    <path
       style="opacity:1;vector-effect:none;fill:#ffffff;fill-opacity:1;stroke-width:0.41036;stroke-linecap:butt;stroke-linejoin:miter;stroke-miterlimit:4;stroke-dasharray:none;stroke-dashoffset:0;stroke-opacity:1"
       d="m 38.506103,290.65412 c -3.198466,-2.39484 -6.47227,-3.80532 -6.595669,-6.18623 0,-1.84303 1.183988,-3.45526 3.225473,-3.99938 1.993215,-0.53125 4.86833,0.88628 4.685151,2.73288 -0.303808,3.06263 -0.545762,3.70491 -1.314955,7.45273 z"
       id="path394"
       inkscape:connector-curvature="0"
       sodipodi:nodetypes="ccssc" />
    <path
       style="opacity:1;vector-effect:none;fill:#ffffff;fill-opacity:1;stroke-width:0.41036;stroke-linecap:butt;stroke-linejoin:miter;stroke-miterlimit:4;stroke-dasharray:none;stroke-dashoffset:0;stroke-opacity:1"
       d="m 7.8107559,276.18649 c 1.9888395,-2.26947 3.5739091,-4.20768 5.0851561,-5.81368 1.905559,-1.82411 4.811484,-0.17722 5.684956,1.96795 0.849357,2.08595 0.136139,5.13405 -1.680068,5.02881 -3.449807,-0.51639 -5.556947,-0.70194 -9.0900441,-1.18308 z"
       id="path392"
       inkscape:connector-curvature="0"
       sodipodi:nodetypes="ccscc" />
    <path
       style="opacity:1;vector-effect:none;fill:#ffffff;fill-opacity:1;stroke-width:0.41036;stroke-linecap:butt;stroke-linejoin:miter;stroke-miterlimit:4;stroke-dasharray:none;stroke-dashoffset:0;stroke-opacity:1"
       d="m 17.882885,279.17005 c -0.185397,-0.1854 -0.66453,-0.57836 -0.89092,-0.76236 6.554707,-3.66652 -0.544462,-12.82733 -4.761499,-8.29443 -0.580762,-0.82928 -0.80664,-3.34391 -0.739263,-4.26723 9.290233,-0.0835 28.32323,8.21001 32.246557,16.09859 -0.86524,0.52065 -2.24344,1.24756 -3.379038,1.84838 0.811958,-6.10067 -10.803668,-5.03123 -8.892507,1.51986 -0.534498,0 -1.874982,0.004 -2.379429,-0.002 1.563757,-4.04487 -8.485866,-8.85884 -11.203901,-6.14081 z"
       id="path396"
       inkscape:connector-curvature="0"
       sodipodi:nodetypes="ccccccccc" />
    <path
       style="opacity:1;vector-effect:none;fill:#ffffff;fill-opacity:1;stroke-width:0.41036;stroke-linecap:butt;stroke-linejoin:miter;stroke-miterlimit:4;stroke-dasharray:none;stroke-dashoffset:0;stroke-opacity:1"
       d="m 11.483687,263.96608 c 0,-1.25205 0.01163,-4.17516 0.01163,-4.78772 4.679171,4.67917 10.332126,-8.3427 5.868684,-10.40686 12.222585,-0.30428 29.567451,6.97154 35.59168,17.40232 -4.629947,0 -8.377527,8.91505 -3.896242,11.50233 -1.179251,0.9929 -2.683318,2.22297 -3.061085,2.51855 -8.834266,-8.53502 -20.351744,-15.5516 -34.514669,-16.22862 z m 29.230457,-2.82992 c 0,-4.24687 -3.41285,-7.79597 -7.343213,-7.79597 -5.085775,0 -7.563262,4.10436 -7.563262,7.25064 0,4.03551 3.02355,7.7119 7.041548,7.7119 4.295404,0 7.864927,-3.18623 7.864927,-7.16657 z"
       id="path398"
       inkscape:connector-curvature="0"
       sodipodi:nodetypes="ccccccccccccc" />
    <path
       style="opacity:1;vector-effect:none;fill:#ffffff;fill-opacity:1;stroke-width:0.41036;stroke-linecap:butt;stroke-linejoin:miter;stroke-miterlimit:4;stroke-dasharray:none;stroke-dashoffset:0;stroke-opacity:1"
       d="m 5.7292437,250.3111 c 2.3325351,-0.43155 10.2131963,-1.40858 11.5360283,-0.46949 2.839149,1.45009 -1.190308,10.28661 -3.815274,9.46701 -3.044003,-1.04619 -5.8248998,-6.5707 -7.7207543,-8.99752 z"
       id="path404"
       inkscape:connector-curvature="0"
       sodipodi:nodetypes="cccc" />
    <path
       style="opacity:1;vector-effect:none;fill:#ffffff;fill-opacity:1;stroke-width:0.41036;stroke-linecap:butt;stroke-linejoin:miter;stroke-miterlimit:4;stroke-dasharray:none;stroke-dashoffset:0;stroke-opacity:1"
       d="m 27.069092,245.1289 c -1.515634,-2.32888 0.572679,-6.13635 1.406488,-8.77044 1.42924,1.73619 6.134454,5.14077 6.134454,7.16639 0,3.15942 -6.376492,3.76106 -7.540942,1.60405 z"
       id="path406"
       inkscape:connector-curvature="0"
       sodipodi:nodetypes="cccc" />
    <path
       style="opacity:1;vector-effect:none;fill:#ffffff;fill-opacity:1;stroke-width:0.41036;stroke-linecap:butt;stroke-linejoin:miter;stroke-miterlimit:4;stroke-dasharray:none;stroke-dashoffset:0;stroke-opacity:1"
       d="m 19.279285,247.37196 c 1.368178,-1.15576 4.904687,-3.59169 6.494678,-3.99965 0,5.49051 10.271619,4.89908 9.446945,-0.79203 5.319128,0.95756 9.539339,2.4581 13.198379,6.71477 -4.41424,4.25228 1.607841,11.43058 4.789245,7.13359 0.472031,1.74331 0.599484,5.1112 0.514747,7.28645 -9.305124,-9.92783 -17.695103,-14.95595 -34.443994,-16.34313 z"
       id="path408"
       inkscape:connector-curvature="0"
       sodipodi:nodetypes="ccccccc" />
    <path
       style="opacity:1;vector-effect:none;fill:#ffffff;fill-opacity:1;stroke-width:0.41036;stroke-linecap:butt;stroke-linejoin:miter;stroke-miterlimit:4;stroke-dasharray:none;stroke-dashoffset:0;stroke-opacity:1"
       d="m 37.921127,241.99458 c 2.530603,-1.69964 4.536713,-3.29768 7.168245,-4.89484 0.299589,2.99115 0.39194,5.75822 0.540961,8.22607 -2.206749,-1.41747 -5.159247,-2.71506 -7.709206,-3.33123 z"
       id="path410"
       inkscape:connector-curvature="0"
       sodipodi:nodetypes="cccc" />
    <path
       style="opacity:1;vector-effect:none;fill:#ffffff;fill-opacity:1;stroke-width:0.41036;stroke-linecap:butt;stroke-linejoin:miter;stroke-miterlimit:4;stroke-dasharray:none;stroke-dashoffset:0;stroke-opacity:1"
       d="m 50.516183,256.94231 c -2.317144,-0.54932 -3.496302,-3.66644 -2.632917,-5.71707 1.167159,-2.79743 6.799831,-0.17479 9.228348,0.51979 -1.207614,1.44071 -4.811098,5.57658 -6.595431,5.19728 z"
       id="path412"
       inkscape:connector-curvature="0"
       sodipodi:nodetypes="cccc" />
    <circle
       style="fill:#ffffff;fill-rule:evenodd;stroke-width:0.339528"
       id="path28"
       cy="260.77618"
       cx="33.208496"
       r="6.2177081" />
  </g>
</svg>
